<svg id="visual" viewBox="0 0 1280 2000" width="1280" height="2000" xmlns="http://www.w3.org/2000/svg" xmlns:xlink="http://www.w3.org/1999/xlink" version="1.1"><rect x="0" y="0" width="1280" height="2000" fill="#fff"></rect><path d="M0 1534L19.3 1539.2C38.7 1544.3 77.3 1554.7 116.2 1552.3C155 1550 194 1535 232.8 1540.5C271.7 1546 310.3 1572 349 1576.3C387.7 1580.7 426.3 1563.3 465.2 1561.3C504 1559.3 543 1572.7 581.8 1566.3C620.7 1560 659.3 1534 698.2 1522.3C737 1510.7 776 1513.3 814.8 1517.5C853.7 1521.7 892.3 1527.3 931 1539.8C969.7 1552.3 1008.3 1571.7 1047.2 1584.7C1086 1597.7 1125 1604.3 1163.8 1593.7C1202.7 1583 1241.3 1555 1260.7 1541L1280 1527L1280 2001L1260.7 2001C1241.3 2001 1202.7 2001 1163.8 2001C1125 2001 1086 2001 1047.2 2001C1008.3 2001 969.7 2001 931 2001C892.3 2001 853.7 2001 814.8 2001C776 2001 737 2001 698.2 2001C659.3 2001 620.7 2001 581.8 2001C543 2001 504 2001 465.2 2001C426.3 2001 387.7 2001 349 2001C310.3 2001 271.7 2001 232.8 2001C194 2001 155 2001 116.2 2001C77.3 2001 38.7 2001 19.3 2001L0 2001Z" fill="#d9d9d9"></path><path d="M0 1700L19.3 1692.5C38.7 1685 77.3 1670 116.2 1671.8C155 1673.7 194 1692.3 232.8 1703.7C271.7 1715 310.3 1719 349 1718C387.7 1717 426.3 1711 465.2 1699.7C504 1688.3 543 1671.7 581.8 1671.5C620.7 1671.3 659.3 1687.7 698.2 1696.8C737 1706 776 1708 814.8 1697.2C853.7 1686.3 892.3 1662.7 931 1658.3C969.7 1654 1008.3 1669 1047.2 1670.3C1086 1671.7 1125 1659.3 1163.8 1662.8C1202.7 1666.3 1241.3 1685.7 1260.7 1695.3L1280 1705L1280 2001L1260.7 2001C1241.3 2001 1202.7 2001 1163.8 2001C1125 2001 1086 2001 1047.2 2001C1008.3 2001 969.7 2001 931 2001C892.3 2001 853.7 2001 814.8 2001C776 2001 737 2001 698.2 2001C659.3 2001 620.7 2001 581.8 2001C543 2001 504 2001 465.2 2001C426.3 2001 387.7 2001 349 2001C310.3 2001 271.7 2001 232.8 2001C194 2001 155 2001 116.2 2001C77.3 2001 38.7 2001 19.3 2001L0 2001Z" fill="#95a0ac"></path><path d="M0 1766L19.3 1766.7C38.7 1767.3 77.3 1768.7 116.2 1773C155 1777.3 194 1784.7 232.8 1791C271.7 1797.3 310.3 1802.7 349 1801.3C387.7 1800 426.3 1792 465.2 1793C504 1794 543 1804 581.8 1801C620.7 1798 659.3 1782 698.2 1774.2C737 1766.3 776 1766.7 814.8 1777C853.7 1787.3 892.3 1807.7 931 1816.5C969.7 1825.3 1008.3 1822.7 1047.2 1816.3C1086 1810 1125 1800 1163.8 1791C1202.7 1782 1241.3 1774 1260.7 1770L1280 1766L1280 2001L1260.7 2001C1241.3 2001 1202.7 2001 1163.8 2001C1125 2001 1086 2001 1047.2 2001C1008.3 2001 969.7 2001 931 2001C892.3 2001 853.7 2001 814.8 2001C776 2001 737 2001 698.2 2001C659.3 2001 620.7 2001 581.8 2001C543 2001 504 2001 465.2 2001C426.3 2001 387.7 2001 349 2001C310.3 2001 271.7 2001 232.8 2001C194 2001 155 2001 116.2 2001C77.3 2001 38.7 2001 19.3 2001L0 2001Z" fill="#546b81"></path></svg>