<svg width="223" height="194" viewBox="0 0 223 194" fill="none" xmlns="http://www.w3.org/2000/svg">
<path d="M111.315 21.0968L207.551 150.097H15.0795L111.315 21.0968Z" fill="#D9D9D9"/>
<g clip-path="url(#clip0_22_14)">
<path d="M28.196 163.466H31.982V163.7H31.37V165.128C31.182 165.332 30.982 165.55 30.77 165.782C30.558 166.01 30.314 166.226 30.038 166.43C29.766 166.634 29.446 166.8 29.078 166.928C28.714 167.056 28.288 167.12 27.8 167.12C26.916 167.12 26.158 166.93 25.526 166.55C24.894 166.166 24.41 165.628 24.074 164.936C23.742 164.24 23.576 163.428 23.576 162.5C23.576 161.804 23.69 161.174 23.918 160.61C24.146 160.042 24.46 159.554 24.86 159.146C25.264 158.738 25.732 158.426 26.264 158.21C26.8 157.99 27.372 157.88 27.98 157.88C28.328 157.88 28.666 157.942 28.994 158.066C29.322 158.186 29.62 158.352 29.888 158.564L30.932 158H31.124V160.628H30.902C30.838 160.304 30.724 159.996 30.56 159.704C30.4 159.412 30.198 159.15 29.954 158.918C29.71 158.682 29.434 158.498 29.126 158.366C28.818 158.23 28.488 158.162 28.136 158.162C27.684 158.162 27.296 158.284 26.972 158.528C26.652 158.772 26.39 159.102 26.186 159.518C25.986 159.93 25.838 160.394 25.742 160.91C25.65 161.426 25.604 161.956 25.604 162.5C25.604 163.044 25.636 163.578 25.7 164.102C25.764 164.626 25.878 165.1 26.042 165.524C26.206 165.944 26.43 166.28 26.714 166.532C26.998 166.78 27.36 166.904 27.8 166.904C28.064 166.904 28.29 166.856 28.478 166.76C28.67 166.66 28.83 166.536 28.958 166.388C29.09 166.236 29.196 166.08 29.276 165.92C29.356 165.76 29.418 165.62 29.462 165.5V163.7H28.196V163.466ZM34.6358 164.198V163.976H38.3258V164.198H34.6358ZM37.4318 157.826L40.5338 166.778H41.4578V167H37.3958V166.778H38.4638L36.2318 159.884L33.8138 166.778H35.0978V167H32.4518V166.778H33.5558L36.7178 157.826H37.4318ZM42.0143 167V166.778H43.1003V158.222H42.0143V158H45.9683V158.222H44.8943V166.778H46.1363C46.5803 166.778 46.9563 166.722 47.2643 166.61C47.5763 166.494 47.8323 166.328 48.0323 166.112C48.2323 165.896 48.3863 165.636 48.4943 165.332C48.6063 165.024 48.6823 164.68 48.7223 164.3H48.9443V167H42.0143ZM51.7334 164.198V163.976H55.4234V164.198H51.7334ZM54.5294 157.826L57.6314 166.778H58.5554V167H54.4934V166.778H55.5614L53.3294 159.884L50.9114 166.778H52.1954V167H49.5494V166.778H50.6534L53.8154 157.826H54.5294ZM53.6354 156.938L53.5154 156.788L54.5714 155.36C54.6874 155.184 54.8254 155.074 54.9854 155.03C55.1454 154.986 55.2974 154.99 55.4414 155.042C55.5894 155.09 55.6974 155.168 55.7654 155.276C55.8454 155.4 55.8774 155.54 55.8614 155.696C55.8494 155.848 55.7914 155.988 55.6874 156.116C55.5874 156.24 55.4494 156.324 55.2734 156.368L53.6354 156.938ZM60.5699 158V166.778H61.9619V167H59.1119V166.778H60.3419V158.222H59.1119V158H60.5699ZM67.9139 158V158.222H66.6479V167.12H66.3419L60.4079 158H62.5499L66.4199 164.048V158.222H65.0639V158H67.9139ZM77.6675 167.036V166.736L77.9075 166.712C78.1875 166.68 78.3995 166.64 78.5435 166.592C78.6955 166.536 78.7995 166.424 78.8555 166.256C78.9115 166.08 78.9395 165.796 78.9395 165.404V160.076C78.9395 159.676 78.9115 159.392 78.8555 159.224C78.7995 159.056 78.6955 158.948 78.5435 158.9C78.3995 158.844 78.1875 158.8 77.9075 158.768L77.6675 158.744V158.444L79.4435 158.48H81.0755C81.5555 158.48 82.0035 158.512 82.4195 158.576C82.8355 158.632 83.1995 158.744 83.5115 158.912C83.8235 159.072 84.0675 159.308 84.2435 159.62C84.4195 159.932 84.5075 160.336 84.5075 160.832C84.5075 161.544 84.2395 162.12 83.7035 162.56C83.1675 163 82.3875 163.22 81.3635 163.22H79.9595V165.404C79.9595 165.796 79.9915 166.08 80.0555 166.256C80.1275 166.424 80.2515 166.536 80.4275 166.592C80.6035 166.64 80.8515 166.68 81.1715 166.712L81.4355 166.736V167.036L79.4075 167L77.6675 167.036ZM81.5435 158.816H79.9595V162.86H81.3635C81.9155 162.86 82.3355 162.78 82.6235 162.62C82.9115 162.46 83.1075 162.228 83.2115 161.924C83.3155 161.62 83.3675 161.256 83.3675 160.832C83.3675 160.376 83.3075 160.016 83.1875 159.752C83.0755 159.48 82.9235 159.276 82.7315 159.14C82.5475 159.004 82.3475 158.916 82.1315 158.876C81.9235 158.836 81.7275 158.816 81.5435 158.816ZM92.0887 167.132C91.6487 167.132 91.3207 166.984 91.1047 166.688C90.8967 166.384 90.7607 166.012 90.6967 165.572C90.6567 165.252 90.5927 164.932 90.5047 164.612C90.4247 164.292 90.2927 164 90.1087 163.736C89.9327 163.464 89.6807 163.248 89.3527 163.088C89.0327 162.928 88.6127 162.848 88.0927 162.848H87.5767V165.404C87.5767 165.796 87.6047 166.08 87.6607 166.256C87.7167 166.424 87.8207 166.536 87.9727 166.592C88.1247 166.64 88.3367 166.68 88.6087 166.712L88.8487 166.736V167.036L87.0727 167H87.0607L85.2847 167.036V166.736L85.5247 166.712C85.8047 166.68 86.0167 166.64 86.1607 166.592C86.3127 166.536 86.4167 166.424 86.4727 166.256C86.5287 166.08 86.5567 165.796 86.5567 165.404V160.076C86.5567 159.676 86.5287 159.392 86.4727 159.224C86.4167 159.056 86.3127 158.948 86.1607 158.9C86.0167 158.844 85.8047 158.8 85.5247 158.768L85.2847 158.744V158.444L87.0607 158.48H88.7407C89.2847 158.48 89.7887 158.544 90.2527 158.672C90.7167 158.792 91.0887 159.004 91.3687 159.308C91.6567 159.612 91.8007 160.036 91.8007 160.58C91.8007 161.06 91.6927 161.452 91.4767 161.756C91.2687 162.052 90.9887 162.28 90.6367 162.44C90.2927 162.592 89.9167 162.7 89.5087 162.764C90.1007 162.804 90.5807 163.008 90.9487 163.376C91.3247 163.736 91.5647 164.268 91.6687 164.972C91.7407 165.42 91.8287 165.772 91.9327 166.028C92.0447 166.276 92.1647 166.452 92.2927 166.556C92.4287 166.652 92.5647 166.7 92.7007 166.7C92.7887 166.7 92.8727 166.684 92.9527 166.652C93.0407 166.62 93.1167 166.588 93.1807 166.556L93.2647 166.856C93.1367 166.92 92.9647 166.98 92.7487 167.036C92.5327 167.1 92.3127 167.132 92.0887 167.132ZM88.7647 158.792H87.5767V162.524H88.5847C89.3527 162.524 89.8887 162.368 90.1927 162.056C90.5047 161.744 90.6607 161.276 90.6607 160.652C90.6607 160.06 90.5207 159.604 90.2407 159.284C89.9607 158.956 89.4687 158.792 88.7647 158.792ZM97.9393 167.132C97.3393 167.132 96.7833 167.024 96.2713 166.808C95.7673 166.592 95.3273 166.288 94.9513 165.896C94.5833 165.504 94.2953 165.04 94.0873 164.504C93.8793 163.96 93.7753 163.364 93.7753 162.716C93.7753 162.068 93.8793 161.476 94.0873 160.94C94.2953 160.404 94.5833 159.94 94.9513 159.548C95.3273 159.156 95.7673 158.852 96.2713 158.636C96.7833 158.42 97.3393 158.312 97.9393 158.312C98.5393 158.312 99.0913 158.42 99.5953 158.636C100.107 158.852 100.547 159.156 100.915 159.548C101.291 159.94 101.583 160.404 101.791 160.94C101.999 161.476 102.103 162.068 102.103 162.716C102.103 163.364 101.999 163.96 101.791 164.504C101.583 165.04 101.291 165.504 100.915 165.896C100.547 166.288 100.107 166.592 99.5953 166.808C99.0913 167.024 98.5393 167.132 97.9393 167.132ZM97.9393 166.772C98.6353 166.772 99.1993 166.608 99.6313 166.28C100.063 165.952 100.379 165.488 100.579 164.888C100.779 164.28 100.879 163.556 100.879 162.716C100.879 161.876 100.779 161.156 100.579 160.556C100.379 159.948 100.063 159.484 99.6313 159.164C99.1993 158.836 98.6353 158.672 97.9393 158.672C97.2513 158.672 96.6873 158.836 96.2473 159.164C95.8153 159.484 95.4993 159.948 95.2993 160.556C95.0993 161.156 94.9993 161.876 94.9993 162.716C94.9993 163.556 95.0993 164.28 95.2993 164.888C95.4993 165.488 95.8153 165.952 96.2473 166.28C96.6873 166.608 97.2513 166.772 97.9393 166.772ZM105.324 167.036V166.736L105.588 166.712C105.916 166.68 106.164 166.64 106.332 166.592C106.508 166.536 106.628 166.424 106.692 166.256C106.764 166.08 106.8 165.796 106.8 165.404V158.804H105.108C104.74 158.804 104.448 158.876 104.232 159.02C104.024 159.156 103.84 159.38 103.68 159.692C103.528 160.004 103.348 160.42 103.14 160.94L102.888 160.88L103.188 159.404L103.32 158.444L106.74 158.48H107.88L111.312 158.444L111.444 159.404L111.744 160.88L111.48 160.952C111.296 160.488 111.124 160.096 110.964 159.776C110.812 159.456 110.632 159.216 110.424 159.056C110.216 158.888 109.94 158.804 109.596 158.804H107.82V165.404C107.82 165.796 107.852 166.08 107.916 166.256C107.988 166.424 108.112 166.536 108.288 166.592C108.464 166.64 108.712 166.68 109.032 166.712L109.296 166.736V167.036L107.34 167L105.324 167.036ZM112.261 167.036V166.736L112.501 166.712C112.781 166.68 112.993 166.64 113.137 166.592C113.289 166.536 113.393 166.424 113.449 166.256C113.505 166.08 113.533 165.796 113.533 165.404V160.076C113.533 159.676 113.505 159.392 113.449 159.224C113.393 159.056 113.289 158.948 113.137 158.9C112.993 158.844 112.781 158.8 112.501 158.768L112.261 158.744V158.444L114.037 158.48H118.693L118.717 159.344L118.813 160.448H118.525C118.469 160.088 118.393 159.8 118.297 159.584C118.209 159.368 118.081 159.208 117.913 159.104C117.745 158.992 117.517 158.92 117.229 158.888C116.949 158.848 116.585 158.828 116.137 158.828H114.553V162.344H115.897C116.057 162.344 116.197 162.308 116.317 162.236C116.437 162.156 116.533 162.012 116.605 161.804C116.685 161.596 116.733 161.296 116.749 160.904H117.049L117.013 162.512L117.049 164.288H116.749C116.749 163.704 116.677 163.292 116.533 163.052C116.389 162.804 116.177 162.68 115.897 162.68H114.553V165.716C114.553 166.1 114.637 166.356 114.805 166.484C114.973 166.604 115.285 166.664 115.741 166.664H116.857C117.321 166.664 117.681 166.612 117.937 166.508C118.201 166.404 118.397 166.196 118.525 165.884C118.653 165.564 118.741 165.096 118.789 164.48H119.089L119.005 165.92L118.969 167H114.037L112.261 167.036ZM124.254 167.132C123.438 167.132 122.734 166.944 122.142 166.568C121.558 166.192 121.106 165.676 120.786 165.02C120.474 164.356 120.318 163.596 120.318 162.74C120.318 162.1 120.422 161.512 120.63 160.976C120.838 160.44 121.126 159.972 121.494 159.572C121.862 159.172 122.286 158.864 122.766 158.648C123.254 158.424 123.774 158.312 124.326 158.312C124.814 158.312 125.214 158.368 125.526 158.48C125.846 158.584 126.086 158.676 126.246 158.756C126.35 158.804 126.446 158.848 126.534 158.888C126.622 158.92 126.682 158.936 126.714 158.936C126.802 158.936 126.874 158.904 126.93 158.84C126.986 158.768 127.022 158.648 127.038 158.48H127.338L127.314 159.884L127.338 161.288H127.038C126.918 160.456 126.63 159.812 126.174 159.356C125.718 158.9 125.114 158.672 124.362 158.672C123.834 158.672 123.39 158.78 123.03 158.996C122.67 159.204 122.382 159.496 122.166 159.872C121.95 160.24 121.79 160.672 121.686 161.168C121.59 161.656 121.542 162.18 121.542 162.74C121.542 163.58 121.63 164.3 121.806 164.9C121.99 165.5 122.286 165.964 122.694 166.292C123.11 166.612 123.666 166.772 124.362 166.772C124.882 166.772 125.334 166.652 125.718 166.412C126.102 166.172 126.41 165.852 126.642 165.452C126.882 165.052 127.026 164.612 127.074 164.132H127.362L127.338 165.596L127.374 167H127.086L127.05 166.868C127.018 166.764 126.978 166.668 126.93 166.58C126.89 166.484 126.818 166.436 126.714 166.436C126.658 166.436 126.59 166.452 126.51 166.484C126.438 166.516 126.354 166.556 126.258 166.604C126.05 166.708 125.778 166.824 125.442 166.952C125.106 167.072 124.71 167.132 124.254 167.132ZM132.891 167.132C132.075 167.132 131.371 166.944 130.779 166.568C130.195 166.192 129.743 165.676 129.423 165.02C129.111 164.356 128.955 163.596 128.955 162.74C128.955 162.1 129.059 161.512 129.267 160.976C129.475 160.44 129.763 159.972 130.131 159.572C130.499 159.172 130.923 158.864 131.403 158.648C131.891 158.424 132.411 158.312 132.963 158.312C133.451 158.312 133.851 158.368 134.163 158.48C134.483 158.584 134.723 158.676 134.883 158.756C134.987 158.804 135.083 158.848 135.171 158.888C135.259 158.92 135.319 158.936 135.351 158.936C135.439 158.936 135.511 158.904 135.567 158.84C135.623 158.768 135.659 158.648 135.675 158.48H135.975L135.951 159.884L135.975 161.288H135.675C135.555 160.456 135.267 159.812 134.811 159.356C134.355 158.9 133.751 158.672 132.999 158.672C132.471 158.672 132.027 158.78 131.667 158.996C131.307 159.204 131.019 159.496 130.803 159.872C130.587 160.24 130.427 160.672 130.323 161.168C130.227 161.656 130.179 162.18 130.179 162.74C130.179 163.58 130.267 164.3 130.443 164.9C130.627 165.5 130.923 165.964 131.331 166.292C131.747 166.612 132.303 166.772 132.999 166.772C133.519 166.772 133.971 166.652 134.355 166.412C134.739 166.172 135.047 165.852 135.279 165.452C135.519 165.052 135.663 164.612 135.711 164.132H135.999L135.975 165.596L136.011 167H135.723L135.687 166.868C135.655 166.764 135.615 166.668 135.567 166.58C135.527 166.484 135.455 166.436 135.351 166.436C135.295 166.436 135.227 166.452 135.147 166.484C135.075 166.516 134.991 166.556 134.895 166.604C134.687 166.708 134.415 166.824 134.079 166.952C133.743 167.072 133.347 167.132 132.891 167.132ZM137.328 167.036V166.736L137.568 166.712C137.848 166.68 138.06 166.64 138.204 166.592C138.356 166.536 138.46 166.424 138.516 166.256C138.572 166.08 138.6 165.796 138.6 165.404V160.076C138.6 159.676 138.572 159.392 138.516 159.224C138.46 159.056 138.356 158.948 138.204 158.9C138.06 158.844 137.848 158.8 137.568 158.768L137.328 158.744V158.444L139.104 158.48H139.116L140.892 158.444V158.744L140.652 158.768C140.38 158.8 140.168 158.844 140.016 158.9C139.864 158.948 139.76 159.056 139.704 159.224C139.648 159.392 139.62 159.676 139.62 160.076V165.404C139.62 165.796 139.648 166.08 139.704 166.256C139.76 166.424 139.864 166.536 140.016 166.592C140.168 166.64 140.38 166.68 140.652 166.712L140.892 166.736V167.036L139.116 167H139.104L137.328 167.036ZM146.279 167.132C145.679 167.132 145.123 167.024 144.611 166.808C144.107 166.592 143.667 166.288 143.291 165.896C142.923 165.504 142.635 165.04 142.427 164.504C142.219 163.96 142.115 163.364 142.115 162.716C142.115 162.068 142.219 161.476 142.427 160.94C142.635 160.404 142.923 159.94 143.291 159.548C143.667 159.156 144.107 158.852 144.611 158.636C145.123 158.42 145.679 158.312 146.279 158.312C146.879 158.312 147.431 158.42 147.935 158.636C148.447 158.852 148.887 159.156 149.255 159.548C149.631 159.94 149.923 160.404 150.131 160.94C150.339 161.476 150.443 162.068 150.443 162.716C150.443 163.364 150.339 163.96 150.131 164.504C149.923 165.04 149.631 165.504 149.255 165.896C148.887 166.288 148.447 166.592 147.935 166.808C147.431 167.024 146.879 167.132 146.279 167.132ZM146.279 166.772C146.975 166.772 147.539 166.608 147.971 166.28C148.403 165.952 148.719 165.488 148.919 164.888C149.119 164.28 149.219 163.556 149.219 162.716C149.219 161.876 149.119 161.156 148.919 160.556C148.719 159.948 148.403 159.484 147.971 159.164C147.539 158.836 146.975 158.672 146.279 158.672C145.591 158.672 145.027 158.836 144.587 159.164C144.155 159.484 143.839 159.948 143.639 160.556C143.439 161.156 143.339 161.876 143.339 162.716C143.339 163.556 143.439 164.28 143.639 164.888C143.839 165.488 144.155 165.952 144.587 166.28C145.027 166.608 145.591 166.772 146.279 166.772ZM146.219 157.88L146.531 155.72H147.503L146.363 157.88H146.219ZM151.179 167.048V166.748L151.419 166.724C151.699 166.692 151.911 166.652 152.055 166.604C152.207 166.556 152.311 166.444 152.367 166.268C152.423 166.092 152.451 165.804 152.451 165.404V159.212C152.379 159.124 152.271 159.028 152.127 158.924C151.983 158.812 151.771 158.756 151.491 158.756H151.131V158.444L153.459 158.48C153.603 158.68 153.795 158.944 154.035 159.272C154.283 159.6 154.555 159.964 154.851 160.364C155.155 160.764 155.467 161.176 155.787 161.6C156.107 162.016 156.415 162.42 156.711 162.812C157.015 163.204 157.287 163.556 157.527 163.868C157.767 164.18 157.955 164.428 158.091 164.612V160.076C158.091 159.676 158.063 159.392 158.007 159.224C157.951 159.048 157.847 158.936 157.695 158.888C157.551 158.832 157.339 158.792 157.059 158.768L156.819 158.744V158.444L158.379 158.48L159.843 158.444V158.744L159.603 158.768C159.331 158.8 159.119 158.844 158.967 158.9C158.815 158.948 158.711 159.056 158.655 159.224C158.599 159.392 158.571 159.676 158.571 160.076V167H158.211C158.083 166.736 157.891 166.412 157.635 166.028C157.387 165.636 157.099 165.208 156.771 164.744C156.443 164.28 156.099 163.808 155.739 163.328C155.387 162.84 155.035 162.368 154.683 161.912C154.331 161.456 154.003 161.04 153.699 160.664C153.395 160.288 153.139 159.976 152.931 159.728V165.404C152.931 165.804 152.959 166.092 153.015 166.268C153.071 166.444 153.175 166.556 153.327 166.604C153.479 166.652 153.691 166.692 153.963 166.724L154.203 166.748V167.048L152.667 167L151.179 167.048ZM163.73 167.036V166.736L163.97 166.712C164.25 166.68 164.462 166.64 164.606 166.592C164.758 166.544 164.862 166.432 164.918 166.256C164.974 166.08 165.002 165.796 165.002 165.404V160.076C165.002 159.676 164.974 159.392 164.918 159.224C164.862 159.048 164.758 158.936 164.606 158.888C164.462 158.832 164.25 158.792 163.97 158.768L163.73 158.744V158.444L165.53 158.48L167.078 158.444V158.72L166.886 158.744C166.654 158.768 166.474 158.804 166.346 158.852C166.226 158.9 166.142 159.004 166.094 159.164C166.046 159.316 166.022 159.572 166.022 159.932V164.936C166.022 165.328 166.042 165.652 166.082 165.908C166.13 166.164 166.254 166.352 166.454 166.472C166.654 166.592 166.978 166.652 167.426 166.652H168.326C169.022 166.652 169.522 166.468 169.826 166.1C170.138 165.724 170.322 165.184 170.378 164.48H170.642L170.522 167.036L165.506 167L163.73 167.036ZM171.546 167.036V166.736L171.786 166.712C172.066 166.68 172.278 166.64 172.422 166.592C172.574 166.536 172.678 166.424 172.734 166.256C172.79 166.08 172.818 165.796 172.818 165.404V160.076C172.818 159.676 172.79 159.392 172.734 159.224C172.678 159.056 172.574 158.948 172.422 158.9C172.278 158.844 172.066 158.8 171.786 158.768L171.546 158.744V158.444L173.322 158.48H177.978L178.002 159.344L178.098 160.448H177.81C177.754 160.088 177.678 159.8 177.582 159.584C177.494 159.368 177.366 159.208 177.198 159.104C177.03 158.992 176.802 158.92 176.514 158.888C176.234 158.848 175.87 158.828 175.422 158.828H173.838V162.344H175.182C175.342 162.344 175.482 162.308 175.602 162.236C175.722 162.156 175.818 162.012 175.89 161.804C175.97 161.596 176.018 161.296 176.034 160.904H176.334L176.298 162.512L176.334 164.288H176.034C176.034 163.704 175.962 163.292 175.818 163.052C175.674 162.804 175.462 162.68 175.182 162.68H173.838V165.716C173.838 166.1 173.922 166.356 174.09 166.484C174.258 166.604 174.57 166.664 175.026 166.664H176.142C176.606 166.664 176.966 166.612 177.222 166.508C177.486 166.404 177.682 166.196 177.81 165.884C177.938 165.564 178.026 165.096 178.074 164.48H178.374L178.29 165.92L178.254 167H173.322L171.546 167.036ZM183.587 167.132C182.851 167.132 182.179 166.952 181.571 166.592C180.971 166.232 180.491 165.724 180.131 165.068C179.779 164.412 179.603 163.636 179.603 162.74C179.603 162.092 179.711 161.496 179.927 160.952C180.143 160.408 180.439 159.94 180.815 159.548C181.191 159.156 181.623 158.852 182.111 158.636C182.599 158.42 183.115 158.312 183.659 158.312C184.011 158.312 184.327 158.356 184.607 158.444C184.887 158.532 185.115 158.616 185.291 158.696C185.499 158.784 185.643 158.844 185.723 158.876C185.811 158.908 185.907 158.924 186.011 158.924C186.123 158.924 186.199 158.876 186.239 158.78C186.287 158.676 186.311 158.576 186.311 158.48H186.611L186.587 159.86L186.611 161.264H186.311C186.295 160.72 186.151 160.256 185.879 159.872C185.615 159.48 185.279 159.184 184.871 158.984C184.471 158.776 184.055 158.672 183.623 158.672C182.687 158.672 181.987 159.024 181.523 159.728C181.059 160.432 180.827 161.436 180.827 162.74C180.827 164.116 181.075 165.132 181.571 165.788C182.067 166.444 182.763 166.772 183.659 166.772C184.107 166.772 184.503 166.7 184.847 166.556C185.191 166.412 185.463 166.224 185.663 165.992C185.863 165.752 185.963 165.504 185.963 165.248V164.912C185.963 164.56 185.879 164.308 185.711 164.156C185.551 164.004 185.251 163.908 184.811 163.868L184.295 163.82V163.532L186.287 163.58L188.135 163.532V163.82L187.595 163.868C187.379 163.884 187.203 163.968 187.067 164.12C186.931 164.272 186.863 164.536 186.863 164.912V165.128C186.863 165.312 186.891 165.484 186.947 165.644C187.011 165.804 187.071 165.94 187.127 166.052L187.295 166.352L187.019 166.532C186.915 166.364 186.811 166.252 186.707 166.196C186.611 166.132 186.527 166.1 186.455 166.1C186.327 166.1 186.211 166.132 186.107 166.196C186.003 166.26 185.891 166.336 185.771 166.424C185.635 166.52 185.471 166.624 185.279 166.736C185.095 166.848 184.867 166.94 184.595 167.012C184.323 167.092 183.987 167.132 183.587 167.132ZM188.101 167.036V166.736L188.209 166.724C188.489 166.684 188.717 166.628 188.893 166.556C189.077 166.484 189.233 166.368 189.361 166.208C189.497 166.04 189.625 165.812 189.745 165.524L192.649 158.48H193.057L195.889 165.524C196.049 165.916 196.221 166.204 196.405 166.388C196.589 166.572 196.841 166.68 197.161 166.712L197.401 166.736V167.036L195.913 167L193.993 167.036V166.736L194.233 166.712C194.513 166.68 194.713 166.62 194.833 166.532C194.953 166.444 195.013 166.32 195.013 166.16C195.013 166 194.957 165.784 194.845 165.512L194.221 163.952H190.837L190.189 165.512C190.133 165.656 190.085 165.788 190.045 165.908C190.005 166.02 189.985 166.12 189.985 166.208C189.985 166.36 190.049 166.476 190.177 166.556C190.313 166.636 190.533 166.688 190.837 166.712L191.077 166.736V167.036L189.553 167L188.101 167.036ZM190.993 163.568H194.077L192.565 159.764L190.993 163.568ZM197.703 167.036V166.736L197.943 166.712C198.223 166.68 198.435 166.64 198.579 166.592C198.731 166.544 198.835 166.432 198.891 166.256C198.947 166.08 198.975 165.796 198.975 165.404V160.076C198.975 159.676 198.947 159.392 198.891 159.224C198.835 159.048 198.731 158.936 198.579 158.888C198.435 158.832 198.223 158.792 197.943 158.768L197.703 158.744V158.444L199.503 158.48L201.051 158.444V158.72L200.859 158.744C200.627 158.768 200.447 158.804 200.319 158.852C200.199 158.9 200.115 159.004 200.067 159.164C200.019 159.316 199.995 159.572 199.995 159.932V164.936C199.995 165.328 200.015 165.652 200.055 165.908C200.103 166.164 200.227 166.352 200.427 166.472C200.627 166.592 200.951 166.652 201.399 166.652H202.299C202.995 166.652 203.495 166.468 203.799 166.1C204.111 165.724 204.295 165.184 204.351 164.48H204.615L204.495 167.036L199.479 167L197.703 167.036Z" fill="black"/>
<line x1="72" y1="170.015" x2="72" y2="152.985" stroke="black"/>
<path d="M59.9204 119.38C59.1515 117.467 57.6005 116.57 56.0091 116.47C54.7485 115.685 53.0976 115.342 51.3005 115.741C46.8908 116.721 45.2931 121.238 45.7714 124.914C46.3472 129.341 51.2144 131.674 55.6213 129.579C59.5853 127.694 61.4308 123.146 59.9204 119.38Z" fill="#546B81"/>
<path d="M78.019 114.11C74.4668 110.744 68.861 111.445 65.7847 115.459C63.0514 119.028 61.5705 125.529 62.6474 129.783C64.0174 135.19 70.6915 136.471 74.3582 132.1C77.8211 127.972 79.3744 122.635 79.8409 117.55C79.9955 115.873 79.1789 114.769 78.019 114.11Z" fill="#546B81"/>
<path d="M97.4234 119.75C97.0973 117.74 95.3277 116.826 93.424 116.739C92.5386 116.248 91.5171 115.935 90.3772 115.971C87.2777 116.069 85.3401 118.572 84.0339 120.827C81.5024 125.197 78.1122 132.359 80.4431 137.272C81.5409 139.588 84.0331 141.102 86.8493 140.771C89.7998 140.423 91.7814 138.087 93.3858 136.021C97.0678 131.279 98.3434 125.431 97.4234 119.75Z" fill="#546B81"/>
<path d="M111.25 132.286C110.992 131.899 110.663 131.589 110.3 131.325C107.59 128.779 103.772 128.191 100.45 130.826C97.2802 133.341 95.509 138.933 96.6753 142.604C98.2065 147.425 104.456 147.655 107.936 144.475C111.246 141.452 113.9 136.268 111.25 132.286Z" fill="#546B81"/>
<path d="M167.788 106.588C173.535 92.9421 150.898 83.3747 140.557 78.037C133.038 74.1553 122.76 67.5268 113.749 65.5597C112.307 64.6025 110.352 64.1259 108.559 64.2381C107.741 63.9105 106.855 63.7401 106.049 63.9355C103.558 64.5407 101.616 65.8448 99.5266 67.1577C98.2038 67.9891 96.6497 68.8462 95.465 69.938C92.4316 70.2096 89.6342 72.4861 90.8193 75.8841C93.3453 83.1346 93.3091 96.7642 80.3518 92.6216C69.3349 89.0996 70.4347 78.3904 71.8212 70.1181C72.2397 67.6222 70.6597 64.5807 67.3454 64.7812C51.0358 65.768 36.1355 73.8834 29.2285 87.6873C23.9401 98.2572 24.2367 114.813 38.3314 119.216C38.7413 119.343 39.137 119.259 39.5284 119.189C41.3456 120.507 44.1843 119.024 44.4824 116.873C44.5989 116.036 49.4711 114.732 50.2157 114.595C51.4244 114.372 56.7065 113.671 57.5498 114.76C59.7269 117.572 64.1795 116.019 64.5244 113.422C69.1135 108.927 76.0141 106.158 79.7776 113.291C81.4347 116.432 85.4982 115.579 87.1943 113.244C94.2118 112.909 99.8058 116.127 99.8719 123.469C99.8821 124.609 100.433 125.339 101.175 125.768C101.68 126.545 102.647 127.066 103.965 126.803C119.241 123.765 109.245 141.89 115.057 147.435C118.968 151.165 124.527 149.002 125.994 144.563C127.906 138.778 127.683 131.044 123.501 126.18C119.484 121.509 113.412 118.629 108.073 115.074C112.65 115.395 123.353 122.801 124.416 123.718C127.191 126.116 128.351 128.384 128.767 131.677C129.07 134.078 128.522 136.15 129.595 138.475C131.813 143.284 138.248 143.946 141.61 139.611C145.589 134.481 144.092 124.952 139.651 120.514C136.377 117.24 131.464 114.806 127.538 112.317C122.756 109.287 117.907 106.33 112.992 103.477C113.366 102.142 114.713 100.937 117.314 99.9C118.645 100.59 119.911 101.366 121.114 102.23C123.983 104.079 126.762 106.089 129.574 108.01C133.132 110.44 137.532 112.724 140.55 115.669C144.952 119.968 143.91 122.962 145.397 127.927C146.885 132.893 151.574 135.77 155.883 130.849C160.87 125.154 158.738 112.334 153.724 107.271C149.488 102.992 143.079 99.9643 137.911 96.7906C131.544 92.8803 124.999 89.2443 118.398 85.6723C121.923 83.4358 133.851 91.3872 135.773 92.6227C142.496 96.945 149.143 100.961 154.31 106.879C157.988 111.093 161.596 114.252 166.984 109.989C167.904 109.261 168.195 107.937 167.882 106.904L167.788 106.588Z" fill="#546B81"/>
<path d="M160.143 67.5958C153.357 63.2267 146.128 59.3378 139.036 55.5682C131.025 51.3109 122.111 45.6174 112.716 44.4313C103.339 43.2473 78.6129 49.442 78.1099 60.4024C77.4203 60.7733 76.8484 61.3399 76.5696 62.1345C74.1954 68.898 68.3516 92.2762 83.298 91.6056C91.2209 91.2501 90.8606 81.6402 88.4204 74.2535C89.565 71.3336 91.4656 68.9845 94.877 66.8376C97.4447 65.222 100.226 63.7729 102.861 62.1702C116.379 64.818 128.362 67.6979 141.003 73.8855C145.78 76.2246 150.562 78.6391 154.965 81.5373C161.23 85.6613 187.931 107.49 164.86 114.471C163.886 114.766 163.266 115.321 162.829 115.954C161.955 116.123 161.165 116.56 160.96 117.544C159.397 125.014 166.185 127.344 173.349 126.349C184.144 124.85 193.255 118.911 195.41 108.883C199.489 89.8889 179.895 71.8698 160.143 67.5958Z" fill="#546B81"/>
</g>
<defs>
<clipPath id="clip0_22_14">
<rect width="192" height="172" fill="white" transform="translate(13)"/>
</clipPath>
</defs>
</svg>
